<?xml version="1.0" encoding="UTF-8"?><!DOCTYPE svg PUBLIC "-//W3C//DTD SVG 1.1//EN" "http://www.w3.org/Graphics/SVG/1.1/DTD/svg11.dtd"><svg xmlns="http://www.w3.org/2000/svg" xmlns:xlink="http://www.w3.org/1999/xlink" version="1.1" width="24" height="24" viewBox="0 0 24 24"><path d="M12 20C16.42 20 20 16.42 20 12C20 7.58 16.42 4 12 4C7.58 4 4 7.58 4 12C4 16.42 7.58 20 12 20ZM12 2C17.5 2 22 6.5 22 12C22 17.5 17.5 22 12 22C6.47 22 2 17.5 2 12C2 6.5 6.47 2 12 2ZM12.5 7L12.5 12.25L17 14.92L16.25 16.15L11 13L11 7L12.5 7Z" /></svg>