<?xml version="1.0" encoding="UTF-8"?><!DOCTYPE svg PUBLIC "-//W3C//DTD SVG 1.1//EN" "http://www.w3.org/Graphics/SVG/1.1/DTD/svg11.dtd"><svg xmlns="http://www.w3.org/2000/svg" xmlns:xlink="http://www.w3.org/1999/xlink" version="1.1" width="24" height="24" viewBox="0 0 24 24"><path d="M14 20C15.1 20 16 19.1 16 18L16 5L9 5C8.45 5 8 5.45 8 6L8 16L5 16L5 5C5 3.34 6.34 2 8 2L19 2C20.66 2 22 3.34 22 5L22 6L18 6L18 18L18 19C18 20.66 16.66 22 15 22L5 22C3.34 22 2 20.66 2 19L2 18L12 18C12 19.1 12.9 20 14 20Z" /></svg>