<?xml version="1.0" encoding="UTF-8"?><!DOCTYPE svg PUBLIC "-//W3C//DTD SVG 1.1//EN" "http://www.w3.org/Graphics/SVG/1.1/DTD/svg11.dtd"><svg xmlns="http://www.w3.org/2000/svg" xmlns:xlink="http://www.w3.org/1999/xlink" version="1.1" width="24" height="24" viewBox="0 0 24.00 24.00"><path d="M5 3L19 3C20.1 3 21 3.9 21 5L21 19C21 20.1 20.1 21 19 21L5 21C3.9 21 3 20.1 3 19L3 5C3 3.9 3.9 3 5 3ZM7.5 15C6.67 15 6 15.67 6 16.5C6 17.33 6.67 18 7.5 18C8.33 18 9 17.33 9 16.5C9 15.67 8.33 15 7.5 15ZM6 10L6 12C9.31 12 12 14.69 12 18L14 18C14 13.58 10.42 10 6 10ZM6 6L6 8C11.5 8 16 12.5 16 18L18 18C18 11.37 12.63 6 6 6Z" /></svg>